<svg width="251" height="33" viewBox="0 0 251 33" fill="none" xmlns="http://www.w3.org/2000/svg">
    <g clip-path="url(#clip0_107_218851)">
        <path d="M4.64405 9.57245C4.64405 9.79133 4.46895 9.9719 4.25007 9.9719C4.03119 9.9719 3.85062 9.7968 3.85062 9.57792C3.85062 9.35904 4.02572 9.17847 4.2446 9.17847C4.46347 9.17847 4.64405 9.35357 4.64405 9.57245Z" fill="#5C6F7C"/>
        <path d="M30.917 17.1677C30.917 17.7642 30.441 18.2512 29.8445 18.2566C29.2481 18.2566 28.7611 17.7806 28.7556 17.1841C28.7556 16.5877 29.2317 16.1007 29.8281 16.0952C30.4246 16.0952 30.9116 16.5713 30.917 17.1677Z" fill="#5C6F7C"/>
        <path d="M16.3156 25.0855C16.3211 25.95 15.6262 26.6504 14.7616 26.6614C13.897 26.6669 13.1911 25.9719 13.1857 25.1128C13.1802 24.2483 13.8751 23.5424 14.7397 23.5369C15.6043 23.5314 16.3102 24.2264 16.3156 25.0855Z" fill="#5C6F7C"/>
        <path d="M4.75412 30.5246C4.76506 31.608 3.88955 32.489 2.8061 32.4999C1.72266 32.5054 0.836201 31.6354 0.830729 30.5574C0.819785 29.4739 1.6953 28.593 2.77874 28.582C3.86219 28.5711 4.74865 29.4411 4.75412 30.5246Z" fill="#5C6F7C"/>
        <path d="M16.7881 12.9925C16.7881 13.4029 16.4597 13.7312 16.0548 13.7367C15.6444 13.7367 15.3106 13.4139 15.3106 13.0035C15.3106 12.5985 15.6335 12.2647 16.0439 12.2593C16.4488 12.2593 16.7826 12.5821 16.7881 12.9925Z" fill="#5C6F7C"/>
        <path d="M10.1043 12.5C10.1043 12.5 5.19044 15.515 4.00303 19.7996C2.84298 23.9966 6.46541 26.5191 6.46541 26.5191C6.46541 26.5191 0.949681 24.117 1.4531 19.7503C2.00577 14.9679 10.1043 12.5 10.1043 12.5Z" fill="#F89731"/>
        <path d="M44.5276 0.5L38.596 3.13201L38.7766 27.2524C38.7766 27.2524 31.6083 30.4973 20.0406 30.5848C20.0406 30.5848 36.9325 32.6094 48.358 27.619C55.4825 24.5109 55.57 20.8776 55.57 20.8776L55.5044 12.0404L50.0762 14.3659L50.0215 6.7052L44.5933 9.03078L44.5276 0.5Z" fill="#F89731"/>
        <path d="M85.6501 8.79505C85.6701 11.5751 83.4301 13.8451 80.6501 13.8651C77.8701 13.8851 75.5901 11.6551 75.5701 8.86505C75.5501 6.08505 77.7901 3.81505 80.5701 3.79505C83.3601 3.77505 85.6301 6.01505 85.6501 8.79505Z" fill="#5C6F7C"/>
        <path d="M97.7801 5.78491C97.3301 5.52491 97.1501 5.43492 96.8801 5.33492C96.5501 5.22492 96.0301 5.15491 95.6901 5.15491C94.7101 5.15491 94.0401 5.63492 94.0401 6.37492C94.0401 7.01492 94.4201 7.34492 96.1801 8.27492C96.7701 8.58492 97.2301 8.87491 97.5401 9.15491C97.9601 9.50491 98.2101 10.0949 98.2101 10.7249C98.2101 12.2049 97.1101 13.1349 95.3701 13.1349C94.7801 13.1349 94.2301 13.0249 93.7701 12.8449C93.4401 12.7149 93.2201 12.5849 92.6501 12.2049L93.2001 11.3549C93.6901 11.6849 93.9001 11.8049 94.2001 11.9149C94.5801 12.0649 95.0001 12.1349 95.4501 12.1349C96.4701 12.1349 97.0901 11.6449 97.0901 10.8249C97.0901 10.5749 97.0501 10.3649 96.9601 10.2049C96.8201 9.94492 96.5701 9.69491 96.2301 9.49491C96.0901 9.41491 95.6001 9.16491 94.7901 8.72491C93.4901 8.02491 92.9401 7.34492 92.9401 6.45492C92.9401 5.07492 94.0801 4.16492 95.8001 4.16492C96.3001 4.16492 96.8101 4.23492 97.2601 4.37492C97.6101 4.49492 97.8201 4.59491 98.3101 4.88491L97.8101 5.77492L97.7801 5.78491Z" fill="#5C6F7C"/>
        <path d="M101.38 13.1349C100.7 13.1349 100.24 12.5949 100.24 11.8149V7.85492H99.2399V7.27493L100.24 7.02493V5.29492H101.22V7.02493H102.79V7.85492H101.22V11.4949C101.25 11.6749 101.25 11.7949 101.26 11.8649C101.27 12.0649 101.39 12.1549 101.6 12.1549C101.85 12.1549 102.05 12.0549 102.47 11.7349L102.88 12.3949C102.19 12.9749 101.86 13.1449 101.39 13.1449" fill="#5C6F7C"/>
        <path d="M105.05 5.59495C104.7 5.59495 104.41 5.30495 104.41 4.95495C104.41 4.60495 104.7 4.31494 105.05 4.31494C105.4 4.31494 105.69 4.60495 105.69 4.95495C105.69 5.30495 105.4 5.59495 105.05 5.59495ZM104.55 7.02495H105.53V12.9649H104.55V7.02495Z" fill="#5C6F7C"/>
        <path d="M111.98 12.725C111.5 12.985 110.92 13.135 110.33 13.135C108.52 13.135 107.29 11.885 107.29 10.065C107.29 8.24499 108.57 6.86499 110.4 6.86499C110.7 6.86499 110.99 6.90499 111.28 6.98499C111.67 7.08499 111.86 7.18499 112.26 7.46499L111.7 8.26499C111.24 7.88499 110.9 7.75499 110.36 7.75499C109.17 7.75499 108.37 8.67499 108.37 10.015C108.37 11.355 109.17 12.225 110.44 12.225C111.02 12.225 111.38 12.095 111.87 11.725L112.38 12.495C112.21 12.595 112.08 12.675 111.99 12.715" fill="#5C6F7C"/>
        <path d="M117.58 12.9649V8.75491C117.58 8.36491 117.57 8.2349 117.49 8.0649C117.4 7.8649 117.18 7.7449 116.9 7.7449C116.28 7.7449 115.64 8.19491 114.62 9.33491V12.9649H113.64V3.40491H114.62V8.26491C115.03 7.80491 115.13 7.68491 115.42 7.45491C115.88 7.07491 116.46 6.86491 117.02 6.86491C118.07 6.86491 118.58 7.40491 118.58 8.51491V12.9549H117.58V12.9649Z" fill="#5C6F7C"/>
        <path d="M122.3 13.1349C121.62 13.1349 121.16 12.5949 121.16 11.8149V7.85492H120.16V7.27493L121.16 7.02493V5.29492H122.14V7.02493H123.71V7.85492H122.14V11.4949C122.17 11.6749 122.17 11.7949 122.18 11.8649C122.19 12.0649 122.31 12.1549 122.52 12.1549C122.77 12.1549 122.97 12.0549 123.39 11.7349L123.8 12.3949C123.1 12.9749 122.78 13.1449 122.31 13.1449" fill="#5C6F7C"/>
        <path d="M125.97 5.59495C125.62 5.59495 125.33 5.30495 125.33 4.95495C125.33 4.60495 125.62 4.31494 125.97 4.31494C126.32 4.31494 126.61 4.60495 126.61 4.95495C126.61 5.30495 126.32 5.59495 125.97 5.59495ZM125.47 7.02495H126.45V12.9649H125.47V7.02495Z" fill="#5C6F7C"/>
        <path d="M132.73 12.965V8.75499C132.73 8.36499 132.7 8.23499 132.64 8.06499C132.55 7.86499 132.31 7.74499 132.04 7.74499C131.44 7.74499 130.79 8.19499 129.76 9.33499V12.965H128.78V7.02499H129.76V8.26499C130.17 7.80499 130.29 7.68499 130.57 7.45499C131.02 7.07499 131.61 6.86499 132.16 6.86499C133.21 6.86499 133.72 7.40499 133.72 8.51499V12.955H132.74L132.73 12.965Z" fill="#5C6F7C"/>
        <path d="M140 7.85498C140.24 8.21498 140.35 8.60498 140.35 9.08498C140.35 10.295 139.29 11.325 138.04 11.325C137.96 11.325 137.84 11.315 137.67 11.295C137.63 11.295 137.56 11.285 137.47 11.285C136.92 11.745 136.7 12.005 136.7 12.175C136.7 12.335 136.83 12.385 137.2 12.385H139.42C140.52 12.385 141.02 12.815 141.02 13.775C141.02 15.165 139.59 16.275 137.81 16.275C136.57 16.275 135.49 15.615 135.49 14.845C135.49 14.675 135.56 14.465 135.67 14.225C135.84 13.895 136.01 13.675 136.46 13.205C135.86 13.035 135.61 12.835 135.61 12.495C135.61 12.115 135.98 11.665 136.78 11.015C136.03 10.605 135.64 9.95498 135.64 9.12498C135.64 7.78498 136.62 6.85498 138.01 6.85498C138.44 6.85498 138.69 6.90498 139.27 7.10498H140.17L141.24 7.01498V7.83498H140V7.85498ZM139.42 13.295H137.2L137 13.595C136.62 14.185 136.5 14.425 136.5 14.645C136.5 15.095 137.09 15.405 137.89 15.405C139.1 15.405 140.18 14.695 140.18 13.895C140.18 13.485 139.93 13.295 139.41 13.295M137.93 7.61498C137.21 7.61498 136.62 8.28499 136.62 9.09499C136.62 9.90499 137.21 10.575 137.94 10.575C138.67 10.575 139.26 9.93499 139.26 9.09499C139.26 8.25499 138.67 7.61498 137.92 7.61498" fill="#5C6F7C"/>
        <path d="M148 4.76489H146.95V13.2449H148V4.76489Z" fill="#5C6F7C"/>
        <path d="M154.21 13.2349V9.11489C154.21 8.73489 154.18 8.60489 154.12 8.43489C154.03 8.24489 153.8 8.12489 153.53 8.12489C152.94 8.12489 152.31 8.56489 151.29 9.67489V13.2349H150.33V7.41489H151.29V8.63489C151.69 8.18489 151.81 8.06489 152.09 7.84489C152.53 7.47489 153.11 7.26489 153.65 7.26489C154.68 7.26489 155.18 7.79489 155.18 8.88489V13.2449H154.22L154.21 13.2349Z" fill="#5C6F7C"/>
        <path d="M158.41 3.875H157.45V13.235H158.41V3.875Z" fill="#5C6F7C"/>
        <path d="M161.23 6.01488C160.88 6.01488 160.6 5.73488 160.6 5.38488C160.6 5.03488 160.88 4.75488 161.23 4.75488C161.58 4.75488 161.86 5.03488 161.86 5.38488C161.86 5.73488 161.58 6.01488 161.23 6.01488ZM160.74 7.41489H161.7V13.2349H160.74V7.41489Z" fill="#5C6F7C"/>
        <path d="M168.13 13.0049C167.66 13.2649 167.09 13.4049 166.51 13.4049C164.74 13.4049 163.53 12.1849 163.53 10.3949C163.53 8.60489 164.79 7.26489 166.58 7.26489C166.88 7.26489 167.16 7.30489 167.44 7.38489C167.82 7.48489 168 7.57489 168.4 7.85489L167.85 8.63489C167.4 8.26489 167.06 8.13489 166.54 8.13489C165.37 8.13489 164.58 9.03489 164.58 10.3449C164.58 11.6549 165.37 12.5149 166.61 12.5149C167.18 12.5149 167.54 12.3849 168.01 12.0249L168.51 12.7849C168.34 12.8849 168.22 12.9649 168.13 13.0049Z" fill="#5C6F7C"/>
        <path d="M173.73 13.235V9.115C173.73 8.735 173.72 8.605 173.64 8.435C173.55 8.245 173.33 8.125 173.06 8.125C172.45 8.125 171.83 8.565 170.82 9.675V13.235H169.86V3.875H170.82V8.63499C171.22 8.18499 171.32 8.065 171.61 7.845C172.06 7.475 172.62 7.265 173.18 7.265C174.21 7.265 174.71 7.79499 174.71 8.88499V13.245H173.73V13.235Z" fill="#5C6F7C"/>
        <path d="M178.2 13.4048C177.53 13.4048 177.08 12.8748 177.08 12.1048V8.22485H176.1V7.65485L177.08 7.41485V5.71484H178.04V7.41485H179.58V8.22485H178.04V11.7948C178.07 11.9748 178.07 12.0948 178.08 12.1548C178.09 12.3448 178.21 12.4348 178.41 12.4348C178.65 12.4348 178.85 12.3348 179.26 12.0248L179.66 12.6648C178.98 13.2348 178.66 13.3948 178.2 13.3948" fill="#5C6F7C"/>
        <path d="M181.65 6.01488C181.3 6.01488 181.02 5.73488 181.02 5.38488C181.02 5.03488 181.3 4.75488 181.65 4.75488C182 4.75488 182.28 5.03488 182.28 5.38488C182.28 5.73488 182 6.01488 181.65 6.01488ZM181.16 7.41489H182.12V13.2349H181.16V7.41489Z" fill="#5C6F7C"/>
        <path d="M188.38 13.2349V9.11489C188.38 8.73489 188.35 8.60489 188.29 8.43489C188.2 8.24489 187.97 8.12489 187.7 8.12489C187.11 8.12489 186.48 8.56489 185.47 9.67489V13.2349H184.51V7.41489H185.47V8.63489C185.87 8.18489 185.99 8.06489 186.27 7.84489C186.71 7.47489 187.29 7.26489 187.83 7.26489C188.86 7.26489 189.36 7.79489 189.36 8.88489V13.2449H188.4L188.38 13.2349Z" fill="#5C6F7C"/>
        <path d="M195.62 8.2249C195.85 8.5749 195.97 8.9549 195.97 9.4349C195.97 10.6149 194.93 11.6349 193.71 11.6349C193.63 11.6349 193.52 11.6249 193.35 11.6049C193.31 11.6049 193.25 11.5949 193.16 11.5949C192.62 12.0449 192.4 12.3049 192.4 12.4649C192.4 12.6149 192.53 12.6749 192.89 12.6749H195.06C196.14 12.6749 196.63 13.0949 196.63 14.0349C196.63 15.3949 195.23 16.4849 193.48 16.4849C192.26 16.4849 191.2 15.8449 191.2 15.0849C191.2 14.9149 191.27 14.7149 191.38 14.4849C191.55 14.1649 191.71 13.9449 192.15 13.4849C191.56 13.3149 191.31 13.1249 191.31 12.7949C191.31 12.4249 191.67 11.9849 192.45 11.3449C191.72 10.9449 191.33 10.3049 191.33 9.4949C191.33 8.1849 192.29 7.2749 193.66 7.2749C194.08 7.2749 194.33 7.3249 194.9 7.5249H195.78L196.83 7.4349V8.2449H195.61L195.62 8.2249ZM195.06 13.5549H192.89L192.7 13.8549C192.33 14.4349 192.21 14.6649 192.21 14.8849C192.21 15.3249 192.79 15.6349 193.57 15.6349C194.75 15.6349 195.82 14.9449 195.82 14.1549C195.82 13.7549 195.58 13.5649 195.06 13.5649M193.61 8.0049C192.9 8.0049 192.32 8.6549 192.32 9.4549C192.32 10.2549 192.9 10.9049 193.62 10.9049C194.34 10.9049 194.92 10.2749 194.92 9.4549C194.92 8.6349 194.34 8.0049 193.61 8.0049Z" fill="#5C6F7C"/>
        <path d="M198.82 10.2449C198.82 11.6549 199.54 12.5149 200.72 12.5149C201.24 12.5149 201.61 12.3749 202.24 11.9349L202.63 12.6949C201.77 13.2349 201.28 13.4049 200.52 13.4049C198.9 13.4049 197.81 12.1749 197.81 10.3349C197.81 8.49489 198.9 7.26489 200.56 7.26489C201.92 7.26489 202.81 8.22489 202.81 9.68489V10.2549H198.82V10.2449ZM200.49 8.13489C199.68 8.13489 199.12 8.62489 198.9 9.52489H201.75C201.74 8.62489 201.29 8.13489 200.49 8.13489Z" fill="#5C6F7C"/>
        <path d="M208.44 13.2349V9.11489C208.44 8.73489 208.42 8.60489 208.35 8.43489C208.26 8.24489 208.03 8.12489 207.76 8.12489C207.17 8.12489 206.54 8.56489 205.53 9.67489V13.2349H204.56V7.41489H205.53V8.63489C205.93 8.18489 206.04 8.06489 206.32 7.84489C206.76 7.47489 207.34 7.26489 207.87 7.26489C208.9 7.26489 209.4 7.79489 209.4 8.88489V13.2449H208.44V13.2349Z" fill="#5C6F7C"/>
        <path d="M217.36 10.8349C217.14 11.4649 216.8 12.0249 216.33 12.5149C215.69 13.1949 215.19 13.4049 214.16 13.4049C213.78 13.4049 213.62 13.3949 212.9 13.3249C212.54 13.2849 212.36 13.2649 211.87 13.2349L213.34 3.9449L214.89 3.7749L214.36 7.1649L214.26 7.6449C214.18 8.0849 214.13 8.2749 213.99 8.8349C214.39 8.1849 214.6 7.9349 215.1 7.5549C215.56 7.2049 215.92 7.0749 216.41 7.0749C217.23 7.0749 217.67 7.7449 217.67 9.0249C217.67 9.6049 217.55 10.2949 217.36 10.8249M215.72 8.4849C215.44 8.4849 215.01 8.8049 214.55 9.3849C214.27 9.7449 214.09 10.0549 213.97 10.3749C213.92 10.5249 213.85 10.7249 213.8 10.9649C213.72 11.2349 213.68 11.4249 213.66 11.5649L213.56 12.2249C213.91 12.3149 214.02 12.3349 214.18 12.3349C215.19 12.3349 216.08 10.8049 216.08 9.0749C216.08 8.6349 215.98 8.4849 215.72 8.4849Z" fill="#5C6F7C"/>
        <path d="M224.24 13.2349H222.78L223.07 11.4649C222.94 11.6949 222.84 11.8849 222.75 12.0349C222.58 12.2849 222.32 12.5649 222.06 12.7949C221.57 13.2049 221.02 13.4149 220.45 13.4149C219.64 13.4149 219.27 13.0249 219.27 12.2149C219.27 12.0849 219.27 11.9549 219.3 11.8349L220 7.35493L221.55 7.18494L220.94 11.0949C220.9 11.3549 220.89 11.4649 220.89 11.5849C220.89 11.8649 220.98 11.9949 221.16 11.9949C221.46 11.9949 221.84 11.7549 222.27 11.2849C222.96 10.5349 223.22 9.94494 223.41 8.76494L223.62 7.35493L225.19 7.18494L224.25 13.2449L224.24 13.2349Z" fill="#5C6F7C"/>
        <path d="M230.34 9.085C230.24 9.025 230.19 9.005 230.1 9.005C229.88 9.005 229.66 9.125 229.39 9.405C229.07 9.725 228.82 10.095 228.65 10.545C228.47 10.965 228.38 11.325 228.25 12.155L228.08 13.235H226.55L227.46 7.335L228.81 7.165L228.56 8.955C228.68 8.745 228.77 8.595 228.82 8.495C229.03 8.165 229.26 7.83499 229.5 7.56499C229.77 7.25499 230.03 7.125 230.39 7.125C230.58 7.125 230.7 7.175 230.93 7.325L230.34 9.075V9.085Z" fill="#5C6F7C"/>
        <path d="M235.45 9.84496L232.85 11.215C232.9 11.515 232.94 11.635 233.02 11.755C233.14 11.935 233.39 12.0649 233.6 12.0649C233.77 12.0649 234.08 12.005 234.33 11.895C234.68 11.755 234.88 11.6149 235.71 10.9949L236.3 11.905C235.94 12.195 235.78 12.305 235.45 12.545C235.18 12.735 234.96 12.875 234.78 12.975C234.28 13.245 233.68 13.395 233.16 13.395C232.02 13.395 231.45 12.685 231.45 11.275C231.45 8.79496 232.83 7.07495 234.82 7.07495C235.94 7.07495 236.52 7.49495 236.52 8.32495C236.52 8.99495 236.2 9.44495 235.45 9.83495M234.52 8.11495C234.23 8.11495 233.93 8.28495 233.66 8.60495C233.35 8.96495 233.2 9.31496 232.94 10.165L234.96 9.03495C235.02 8.86495 235.04 8.78495 235.04 8.67495C235.04 8.31495 234.86 8.12495 234.52 8.12495" fill="#5C6F7C"/>
        <path d="M242.58 13.235H241.21L241.48 11.535C240.98 12.245 240.75 12.495 240.26 12.855C239.8 13.205 239.3 13.395 238.88 13.395C238.18 13.395 237.7 12.615 237.7 11.505C237.7 9.84498 238.42 8.31498 239.55 7.56498C240.08 7.23498 240.57 7.10498 241.4 7.10498C241.95 7.10498 242.3 7.14498 243.5 7.33498L242.58 13.235ZM241.31 8.18498C240.26 8.18498 239.33 9.54498 239.33 11.085C239.33 11.625 239.47 11.945 239.73 11.945C239.96 11.945 240.37 11.615 240.76 11.125C241.26 10.465 241.59 9.74498 241.7 9.08498L241.83 8.25498C241.59 8.20498 241.5 8.19498 241.31 8.19498" fill="#5C6F7C"/>
        <path d="M250.05 13.2349H248.6L248.88 11.4649C248.75 11.6949 248.65 11.8849 248.56 12.0349C248.39 12.2849 248.13 12.5649 247.86 12.7949C247.37 13.2049 246.82 13.4149 246.25 13.4149C245.44 13.4149 245.07 13.0249 245.07 12.2149C245.07 12.0849 245.07 11.9549 245.1 11.8349L245.8 7.35493L247.35 7.18494L246.75 11.0949C246.71 11.3549 246.7 11.4649 246.7 11.5849C246.7 11.8649 246.79 11.9949 246.97 11.9949C247.26 11.9949 247.65 11.7549 248.08 11.2849C248.78 10.5349 249.03 9.94494 249.22 8.76494L249.43 7.35493L251 7.18494L250.06 13.2449L250.05 13.2349Z" fill="#5C6F7C"/>
        <path d="M77.4601 26.8949V19.4149H78.3901V26.8949H77.4601Z" fill="#F89731"/>
        <path d="M84.5901 26.8949V23.2549C84.5901 22.9149 84.5701 22.8049 84.5101 22.6549C84.4301 22.4849 84.2301 22.3849 83.9901 22.3849C83.4701 22.3849 82.9101 22.7649 82.0201 23.7549V26.8949H81.1701V21.7549H82.0201V22.8349C82.3701 22.4349 82.4701 22.3349 82.7201 22.1349C83.1101 21.8049 83.6201 21.6249 84.0901 21.6249C85.0001 21.6249 85.4401 22.0849 85.4401 23.0549V26.8949H84.5901Z" fill="#F89731"/>
        <path d="M91.0802 19.4749C90.7202 19.3549 90.5002 19.3049 90.2402 19.3049C89.3702 19.3049 88.9402 19.8949 88.9402 21.1149V21.7449H90.1502V22.4549H88.9402V26.8749H88.0902V22.4549H87.2302V21.9549L88.0902 21.7349V20.8849C88.0902 19.4249 88.9502 18.4949 90.3002 18.4949C90.7302 18.4949 91.0402 18.5649 91.4302 18.7449L91.0802 19.4549V19.4749Z" fill="#F89731"/>
        <path d="M93.7301 27.0349C92.3401 27.0349 91.1901 25.7949 91.1901 24.3249C91.1901 22.8549 92.3401 21.6149 93.7301 21.6149C95.1201 21.6149 96.2601 22.8349 96.2601 24.3249C96.2601 25.8149 95.1101 27.0349 93.7301 27.0349ZM93.7301 22.3749C92.8201 22.3749 92.1201 23.2349 92.1201 24.3249C92.1201 25.4149 92.8201 26.2749 93.7301 26.2749C94.6401 26.2749 95.3301 25.4149 95.3301 24.3249C95.3301 23.2349 94.6301 22.3749 93.7301 22.3749Z" fill="#F89731"/>
        <path d="M100.72 22.6849C100.55 22.5349 100.46 22.4849 100.36 22.4849C100.04 22.4849 99.6302 22.9449 99.1502 23.8349V26.8949H98.3002V21.7549H99.1502V22.6849C99.7802 21.8649 100.1 21.6149 100.49 21.6149C100.68 21.6149 100.92 21.7349 101.15 21.9649L100.73 22.6749L100.72 22.6849Z" fill="#F89731"/>
        <path d="M109.53 26.8949V23.2549C109.53 22.8849 109.53 22.8149 109.45 22.6549C109.37 22.4849 109.17 22.3849 108.93 22.3849C108.45 22.3849 107.96 22.7149 107.2 23.5049L106.96 23.7549V26.8949H106.11V23.2549C106.11 22.8849 106.11 22.8149 106.03 22.6549C105.95 22.4849 105.75 22.3849 105.51 22.3849C104.99 22.3849 104.43 22.7649 103.54 23.7549V26.8949H102.69V21.7549H103.54V22.8349C103.89 22.4349 103.99 22.3349 104.24 22.1349C104.63 21.8049 105.14 21.6249 105.61 21.6249C106.46 21.6249 106.89 22.0249 106.95 22.8449C107.31 22.4349 107.41 22.3349 107.66 22.1349C108.05 21.8049 108.56 21.6249 109.03 21.6249C109.94 21.6249 110.38 22.0849 110.38 23.0549V26.8949H109.53Z" fill="#F89731"/>
        <path d="M116.5 27.0349C115.8 26.9949 115.55 26.8049 115.5 26.3249C115.24 26.5549 115.13 26.6449 114.96 26.7349C114.64 26.9149 114.23 27.0249 113.87 27.0249C113.04 27.0249 112.5 26.4949 112.5 25.6749C112.5 24.9249 112.9 24.4249 113.64 24.2449L115.42 23.8249V22.8949C115.42 22.4749 115.1 22.2649 114.45 22.2649C113.92 22.2649 113.67 22.4149 113.67 22.7049C113.67 22.7649 113.68 22.8049 113.71 22.8949L112.85 23.0749C112.77 22.9349 112.76 22.8849 112.76 22.7549C112.76 22.0749 113.51 21.6149 114.61 21.6149C115.64 21.6149 116.29 22.1049 116.29 22.8949V26.0449C116.31 26.1849 116.45 26.2749 116.71 26.3149L116.51 27.0249L116.5 27.0349ZM115.42 24.5449L113.49 25.0449C113.37 25.2849 113.34 25.3949 113.34 25.6049C113.34 26.0149 113.61 26.2749 114.03 26.2749C114.41 26.2749 114.68 26.1549 115.41 25.6149V24.5449H115.42Z" fill="#F89731"/>
        <path d="M119.87 27.0349C119.28 27.0349 118.88 26.5749 118.88 25.8949V22.4749H118.02V21.9749L118.88 21.7549V20.2549H119.73V21.7549H121.09V22.4649H119.73V25.3849C119.73 25.3849 119.75 25.8649 119.76 25.9549C119.78 26.1049 119.87 26.1849 120.05 26.1849C120.26 26.1849 120.44 26.0949 120.8 25.8249L121.15 26.3949C120.55 26.8949 120.27 27.0449 119.86 27.0449L119.87 27.0349Z" fill="#F89731"/>
        <path d="M123.33 20.5249C123.02 20.5249 122.77 20.2749 122.77 19.9649C122.77 19.6549 123.02 19.4049 123.33 19.4049C123.64 19.4049 123.88 19.6549 123.88 19.9649C123.88 20.2749 123.63 20.5249 123.33 20.5249ZM122.9 26.8949V21.7549H123.75V26.8949H122.9Z" fill="#F89731"/>
        <path d="M126.68 24.2549C126.68 25.5049 127.31 26.2649 128.36 26.2649C128.81 26.2649 129.14 26.1449 129.7 25.7549L130.04 26.4249C129.28 26.9049 128.85 27.0449 128.18 27.0449C126.75 27.0449 125.79 25.9549 125.79 24.3349C125.79 22.7149 126.75 21.6249 128.22 21.6249C129.42 21.6249 130.2 22.4749 130.2 23.7549V24.2549H126.69H126.68ZM128.15 22.3949C127.44 22.3949 126.94 22.8249 126.74 23.6149H129.26C129.25 22.8249 128.85 22.3949 128.15 22.3949Z" fill="#F89731"/>
        <path d="M132.11 26.8949V18.6349H132.96V26.8949H132.11ZM135.1 26.8949L132.98 24.1049L135.1 21.7549H136.21L134.02 24.1149L136.22 26.8949H135.1Z" fill="#F89731"/>
        <path d="M141.3 26.8949V23.2549C141.3 22.9149 141.28 22.8049 141.22 22.6549C141.14 22.4849 140.94 22.3849 140.7 22.3849C140.18 22.3849 139.62 22.7649 138.73 23.7549V26.8949H137.88V21.7549H138.73V22.8349C139.08 22.4349 139.18 22.3349 139.43 22.1349C139.82 21.8049 140.33 21.6249 140.8 21.6249C141.71 21.6249 142.15 22.0849 142.15 23.0549V26.8949H141.3Z" fill="#F89731"/>
        <path d="M146.68 27.0349C145.29 27.0349 144.14 25.7949 144.14 24.3249C144.14 22.8549 145.29 21.6149 146.68 21.6149C148.07 21.6149 149.21 22.8349 149.21 24.3249C149.21 25.8149 148.06 27.0349 146.68 27.0349ZM146.68 22.3749C145.77 22.3749 145.07 23.2349 145.07 24.3249C145.07 25.4149 145.77 26.2749 146.68 26.2749C147.59 26.2749 148.28 25.4149 148.28 24.3249C148.28 23.2349 147.58 22.3749 146.68 22.3749Z" fill="#F89731"/>
        <path d="M153.29 27.0349C151.9 27.0349 150.75 25.7949 150.75 24.3249C150.75 22.8549 151.9 21.6149 153.29 21.6149C154.68 21.6149 155.82 22.8349 155.82 24.3249C155.82 25.8149 154.67 27.0349 153.29 27.0349ZM153.29 22.3749C152.38 22.3749 151.68 23.2349 151.68 24.3249C151.68 25.4149 152.38 26.2749 153.29 26.2749C154.2 26.2749 154.89 25.4149 154.89 24.3249C154.89 23.2349 154.19 22.3749 153.29 22.3749Z" fill="#F89731"/>
        <path d="M159.93 27.0249C159.39 27.0249 159.03 26.9249 158.71 26.6749V29.5949H157.86V21.7449H158.71V22.3949C159.14 21.8949 159.75 21.6049 160.4 21.6049C161.67 21.6049 162.55 22.6549 162.55 24.1749C162.55 25.8349 161.45 27.0249 159.93 27.0249ZM160.26 22.4149C159.95 22.4149 159.58 22.5549 159.26 22.7649C159.06 22.9149 158.94 23.0249 158.7 23.3349V25.1149C158.7 25.5549 158.71 25.6149 158.8 25.7849C158.97 26.0749 159.31 26.2249 159.83 26.2249C160.92 26.2249 161.62 25.4349 161.62 24.1949C161.62 23.1649 161.04 22.4149 160.25 22.4149H160.26Z" fill="#F89731"/>
        <path d="M166.65 27.0249C166.11 27.0249 165.75 26.9249 165.43 26.6749V29.5949H164.58V21.7449H165.43V22.3949C165.86 21.8949 166.47 21.6049 167.12 21.6049C168.39 21.6049 169.27 22.6549 169.27 24.1749C169.27 25.8349 168.17 27.0249 166.65 27.0249ZM166.98 22.4149C166.67 22.4149 166.3 22.5549 165.98 22.7649C165.78 22.9149 165.66 23.0249 165.43 23.3349V25.1149C165.43 25.5549 165.44 25.6149 165.53 25.7849C165.7 26.0749 166.04 26.2249 166.56 26.2249C167.65 26.2249 168.35 25.4349 168.35 24.1949C168.35 23.1649 167.77 22.4149 166.98 22.4149Z" fill="#F89731"/>
        <path d="M174.67 26.8949V25.8249C174.07 26.6549 173.4 27.0449 172.63 27.0449C171.74 27.0449 171.26 26.5449 171.26 25.6049V21.7549H172.11V25.3949C172.11 26.0249 172.29 26.2949 172.72 26.2949C173.26 26.2949 174.08 25.7149 174.67 24.9049V21.7649H175.53V26.9049H174.67V26.8949Z" fill="#F89731"/>
        <path d="M181.43 26.8949V23.2549C181.43 22.9149 181.41 22.8049 181.35 22.6549C181.27 22.4849 181.07 22.3849 180.83 22.3849C180.31 22.3849 179.75 22.7649 178.86 23.7549V26.8949H178.01V21.7549H178.86V22.8349C179.21 22.4349 179.31 22.3349 179.56 22.1349C179.94 21.8049 180.45 21.6249 180.93 21.6249C181.84 21.6249 182.28 22.0849 182.28 23.0549V26.8949H181.43Z" fill="#F89731"/>
        <path d="M185.8 27.0349C185.21 27.0349 184.81 26.5749 184.81 25.8949V22.4749H183.95V21.9749L184.81 21.7549V20.2549H185.66V21.7549H187.02V22.4649H185.66V25.3849C185.66 25.3849 185.68 25.8649 185.69 25.9549C185.71 26.1049 185.8 26.1849 185.98 26.1849C186.19 26.1849 186.37 26.0949 186.73 25.8249L187.08 26.3949C186.48 26.8949 186.2 27.0449 185.79 27.0449L185.8 27.0349Z" fill="#F89731"/>
        <path d="M197.7 26.7949C197.19 26.9549 196.44 27.0449 195.82 27.0449C193.56 27.0449 191.83 25.3549 191.83 23.1449C191.83 20.9349 193.51 19.2849 195.79 19.2849C196.32 19.2849 196.95 19.3549 197.34 19.4549C197.67 19.5449 197.84 19.6249 198.25 19.8549L197.9 20.6249C197.72 20.5249 197.59 20.4649 197.5 20.4249C197.07 20.2449 196.48 20.1349 195.88 20.1349C194.83 20.1349 194.15 20.4149 193.57 21.0849C193.11 21.6249 192.83 22.3449 192.83 23.0849C192.83 24.8849 194.21 26.2149 196.08 26.2149C196.45 26.2149 196.71 26.1849 197.32 26.0549V23.5549H198.25V26.6149C198.01 26.7049 197.83 26.7649 197.71 26.7949H197.7Z" fill="#F89731"/>
        <path d="M201.24 24.2549C201.24 25.5049 201.87 26.2649 202.92 26.2649C203.37 26.2649 203.7 26.1449 204.26 25.7549L204.6 26.4249C203.84 26.9049 203.41 27.0449 202.74 27.0449C201.31 27.0449 200.35 25.9549 200.35 24.3349C200.35 22.7149 201.31 21.6249 202.78 21.6249C203.98 21.6249 204.76 22.4749 204.76 23.7549V24.2549H201.25H201.24ZM202.71 22.3949C202 22.3949 201.5 22.8249 201.3 23.6149H203.82C203.82 22.8249 203.41 22.3949 202.71 22.3949Z" fill="#F89731"/>
        <path d="M213.57 26.8949V23.2549C213.57 22.8849 213.57 22.8149 213.49 22.6549C213.41 22.4849 213.21 22.3849 212.97 22.3849C212.49 22.3849 212 22.7149 211.24 23.5049L211 23.7549V26.8949H210.15V23.2549C210.15 22.8849 210.15 22.8149 210.07 22.6549C209.99 22.4849 209.79 22.3849 209.55 22.3849C209.03 22.3849 208.47 22.7649 207.58 23.7549V26.8949H206.73V21.7549H207.58V22.8349C207.93 22.4349 208.03 22.3349 208.28 22.1349C208.66 21.8049 209.17 21.6249 209.65 21.6249C210.5 21.6249 210.93 22.0249 210.99 22.8449C211.35 22.4349 211.45 22.3349 211.7 22.1349C212.08 21.8049 212.59 21.6249 213.07 21.6249C213.98 21.6249 214.42 22.0849 214.42 23.0549V26.8949H213.57Z" fill="#F89731"/>
        <path d="M217.3 24.2549C217.3 25.5049 217.93 26.2649 218.98 26.2649C219.43 26.2649 219.76 26.1449 220.32 25.7549L220.66 26.4249C219.9 26.9049 219.47 27.0449 218.8 27.0449C217.37 27.0449 216.41 25.9549 216.41 24.3349C216.41 22.7149 217.37 21.6249 218.84 21.6249C220.04 21.6249 220.82 22.4749 220.82 23.7549V24.2549H217.3ZM218.77 22.3949C218.06 22.3949 217.56 22.8249 217.36 23.6149H219.88C219.87 22.8249 219.47 22.3949 218.77 22.3949Z" fill="#F89731"/>
        <path d="M223.19 24.2549C223.19 25.5049 223.82 26.2649 224.87 26.2649C225.32 26.2649 225.65 26.1449 226.21 25.7549L226.55 26.4249C225.79 26.9049 225.36 27.0449 224.69 27.0449C223.26 27.0449 222.3 25.9549 222.3 24.3349C222.3 22.7149 223.26 21.6249 224.73 21.6249C225.93 21.6249 226.71 22.4749 226.71 23.7549V24.2549H223.2H223.19ZM224.66 22.3949C223.95 22.3949 223.45 22.8249 223.25 23.6149H225.77C225.77 22.8249 225.36 22.3949 224.66 22.3949Z" fill="#F89731"/>
        <path d="M232.09 26.8949V23.2549C232.09 22.9149 232.07 22.8049 232.01 22.6549C231.93 22.4849 231.73 22.3849 231.49 22.3849C230.97 22.3849 230.41 22.7649 229.52 23.7549V26.8949H228.67V21.7549H229.52V22.8349C229.87 22.4349 229.97 22.3349 230.22 22.1349C230.61 21.8049 231.12 21.6249 231.59 21.6249C232.5 21.6249 232.94 22.0849 232.94 23.0549V26.8949H232.09Z" fill="#F89731"/>
        <path d="M236.46 27.0349C235.87 27.0349 235.47 26.5749 235.47 25.8949V22.4749H234.61V21.9749L235.47 21.7549V20.2549H236.32V21.7549H237.68V22.4649H236.32V25.3849C236.32 25.3849 236.34 25.8649 236.36 25.9549C236.38 26.1049 236.47 26.1849 236.65 26.1849C236.86 26.1849 237.03 26.0949 237.4 25.8249L237.75 26.3949C237.15 26.8949 236.87 27.0449 236.46 27.0449V27.0349Z" fill="#F89731"/>
        <path d="M239.9 24.2549C239.9 25.5049 240.53 26.2649 241.58 26.2649C242.03 26.2649 242.36 26.1449 242.92 25.7549L243.26 26.4249C242.5 26.9049 242.07 27.0449 241.4 27.0449C239.97 27.0449 239.01 25.9549 239.01 24.3349C239.01 22.7149 239.97 21.6249 241.44 21.6249C242.64 21.6249 243.42 22.4749 243.42 23.7549V24.2549H239.91H239.9ZM241.37 22.3949C240.66 22.3949 240.16 22.8249 239.96 23.6149H242.48C242.48 22.8249 242.07 22.3949 241.37 22.3949Z" fill="#F89731"/>
        <path d="M248.8 26.8949V23.2549C248.8 22.9149 248.78 22.8049 248.72 22.6549C248.64 22.4849 248.44 22.3849 248.2 22.3849C247.68 22.3849 247.12 22.7649 246.23 23.7549V26.8949H245.38V21.7549H246.23V22.8349C246.58 22.4349 246.68 22.3349 246.93 22.1349C247.31 21.8049 247.82 21.6249 248.3 21.6249C249.21 21.6249 249.65 22.0849 249.65 23.0549V26.8949H248.8Z" fill="#F89731"/>
    </g>
    <defs>
        <clipPath id="clip0_107_218851">
            <rect width="250.169" height="31.9999" fill="white" transform="translate(0.830627 0.5)"/>
        </clipPath>
    </defs>
</svg>
